
                <svg xmlns="http://www.w3.org/2000/svg" xmlns:xlink="http://www.w3.org/1999/xlink" width="2327" height="1263" shape-rendering="optimizeSpeed">
                
            <g>
                <rect x="50" y="80" width="245" height="30" style="fill:#a5d6a7; stroke:#444; stroke-width:1"></rect>
                    
                <line x1="60" y1="80" x2="60" y2="110" style="fill:#a5d6a7; stroke:#444; stroke-width:1"></line>
                <line x1="285" y1="80" x2="285" y2="110" style="fill:#a5d6a7; stroke:#444; stroke-width:1"></line>
             
                <title>function logout(req, res)</title>
            <text x="75" y="100" font-family="monospace" font-size="13" fill="#222">
                <tspan x="75" y="100">function logout(req, res)</tspan>
            </text>
                
            </g>
                <g>
                   <rect x="87" y="128.5" width="443.4" height="30" rx="3" ry="3" style="fill:#90caf9; stroke:#444; stroke-width:1"></rect>
                   <title>let user_ip = req.headers['x-forwarded-for'] || req.socket.remoteAddress || req.headers["x-real-ip"] || req.ip || null</title>
            <text x="102" y="148.5" font-family="monospace" font-size="13" fill="#222">
                <tspan x="102" y="148.5">let user_ip = req.headers['x-forwarded-for'] || re...</tspan>
            </text>
                   
                   
                </g><g>
            <rect x="117" y="192" width="426.59999999999997" height="30" rx="3" ry="3" style="fill:#ce93d8; stroke:#444; stroke-width:1"></rect>                
            <polygon points="87,207 117,177 147,207 117,237" style="fill:#ce93d8; stroke:#444; stroke-width:1"></polygon>
            <title>(typeof req.signedCookies.token == "undefined")</title>
            <text x="162" y="212" font-family="monospace" font-size="13" fill="#222">
                <tspan x="162" y="212">(typeof req.signedCookies.token == "undefined")</tspan>
            </text>
            
            <text x="109.2" y="212" font-family="monospace" font-size="13" fill="#222">if</text> <text x="124.8" y="238.95" font-family="monospace" font-size="13" fill="#222">+</text> <text x="547.4999999999999" y="205.05" font-family="monospace" font-size="13" fill="#222">-</text>
        </g>
            <g>
                <rect x="137" y="247" width="365.4" height="30" rx="3" ry="3" style="fill:#90caf9; stroke:#444; stroke-width:1"></rect>
                
                <line x1="502.4" y1="257" x2="507.4" y2="257" style="fill:#a5d6a7; stroke:#444; stroke-width:1"></line>
                
                <line x1="502.4" y1="267" x2="507.4" y2="267" style="fill:#a5d6a7; stroke:#444; stroke-width:1"></line>

                <path d="M507.4, 251 L523.4, 262 L507.4, 273 Z" fill="#a5d6a7" stroke="#444" stroke-width="1"></path>
                             
                <title>return successRedirect(null, res, "/login")</title>
            <text x="152" y="267" font-family="monospace" font-size="13" fill="#222">
                <tspan x="152" y="267">return successRedirect(null, res, "/login")</tspan>
            </text>
                
            </g>
                <g>
                   <rect x="603.5999999999999" y="247" width="443.4" height="30" rx="2" ry="2" style="fill:#C5E1A5; stroke:#444; stroke-width:1"></rect>
                   <title>redisClient.client.get(req.signedCookies.token, *())</title>
            <text x="618.5999999999999" y="267" font-family="monospace" font-size="13" fill="#222">
                <tspan x="618.5999999999999" y="267">redisClient.client.get(req.signedCookies.token, *(...</tspan>
            </text>
                   
                   
                </g>
            <g>
                <rect x="640.5999999999999" y="295.5" width="190.4" height="30" style="fill:#a5d6a7; stroke:#444; stroke-width:1"></rect>
                    
                <line x1="650.5999999999999" y1="295.5" x2="650.5999999999999" y2="325.5" style="fill:#a5d6a7; stroke:#444; stroke-width:1"></line>
                <line x1="820.9999999999999" y1="295.5" x2="820.9999999999999" y2="325.5" style="fill:#a5d6a7; stroke:#444; stroke-width:1"></line>
             
                <title>function(err, obj)</title>
            <text x="665.5999999999999" y="315.5" font-family="monospace" font-size="13" fill="#222">
                <tspan x="665.5999999999999" y="315.5">function(err, obj)</tspan>
            </text>
                
            </g>
                <g>
                   <rect x="677.5999999999999" y="344" width="248.4" height="30" rx="3" ry="3" style="fill:#90caf9; stroke:#444; stroke-width:1"></rect>
                   <title>let newObj = JSON.parse(obj)</title>
            <text x="692.5999999999999" y="364" font-family="monospace" font-size="13" fill="#222">
                <tspan x="692.5999999999999" y="364">let newObj = JSON.parse(obj)</tspan>
            </text>
                   
                   
                </g><g>
            <rect x="707.5999999999999" y="407.5" width="208.2" height="30" rx="3" ry="3" style="fill:#ce93d8; stroke:#444; stroke-width:1"></rect>                
            <polygon points="677.5999999999999,422.5 707.5999999999999,392.5 737.5999999999999,422.5 707.5999999999999,452.5" style="fill:#ce93d8; stroke:#444; stroke-width:1"></polygon>
            <title>(!newObj?.username)</title>
            <text x="752.5999999999999" y="427.5" font-family="monospace" font-size="13" fill="#222">
                <tspan x="752.5999999999999" y="427.5">(!newObj?.username)</tspan>
            </text>
            
            <text x="699.8" y="427.5" font-family="monospace" font-size="13" fill="#222">if</text> <text x="715.3999999999999" y="454.45" font-family="monospace" font-size="13" fill="#222">+</text> 
        </g>
                <g>
                   <rect x="727.5999999999999" y="462.5" width="76.8" height="30" rx="3" ry="3" style="fill:#90caf9; stroke:#444; stroke-width:1"></rect>
                   <title>newObj</title>
            <text x="742.5999999999999" y="482.5" font-family="monospace" font-size="13" fill="#222">
                <tspan x="742.5999999999999" y="482.5">newObj</tspan>
            </text>
                   
                   
                </g>
                <g>
                   <rect x="727.5999999999999" y="511" width="92.4" height="30" rx="3" ry="3" style="fill:#90caf9; stroke:#444; stroke-width:1"></rect>
                   <title>username</title>
            <text x="742.5999999999999" y="531" font-family="monospace" font-size="13" fill="#222">
                <tspan x="742.5999999999999" y="531">username</tspan>
            </text>
                   
                   
                </g>
            <g>
                <rect x="727.5999999999999" y="559.5" width="365.4" height="30" rx="3" ry="3" style="fill:#90caf9; stroke:#444; stroke-width:1"></rect>
                
                <line x1="1093" y1="569.5" x2="1098" y2="569.5" style="fill:#a5d6a7; stroke:#444; stroke-width:1"></line>
                
                <line x1="1093" y1="579.5" x2="1098" y2="579.5" style="fill:#a5d6a7; stroke:#444; stroke-width:1"></line>

                <path d="M1098, 563.5 L1114, 574.5 L1098, 585.5 Z" fill="#a5d6a7" stroke="#444" stroke-width="1"></path>
                             
                <title>return successRedirect(null, res, "/login")</title>
            <text x="742.5999999999999" y="579.5" font-family="monospace" font-size="13" fill="#222">
                <tspan x="742.5999999999999" y="579.5">return successRedirect(null, res, "/login")</tspan>
            </text>
                
            </g>
                <g>
                   <rect x="677.5999999999999" y="609.5" width="264" height="30" rx="3" ry="3" style="fill:#90caf9; stroke:#444; stroke-width:1"></rect>
                   <title>let username = newObj.username</title>
            <text x="692.5999999999999" y="629.5" font-family="monospace" font-size="13" fill="#222">
                <tspan x="692.5999999999999" y="629.5">let username = newObj.username</tspan>
            </text>
                   
                   
                </g><g>
            <rect x="707.5999999999999" y="673" width="99" height="30" rx="3" ry="3" style="fill:#ce93d8; stroke:#444; stroke-width:1"></rect>                
            <polygon points="677.5999999999999,688 707.5999999999999,658 737.5999999999999,688 707.5999999999999,718" style="fill:#ce93d8; stroke:#444; stroke-width:1"></polygon>
            <title>(err)</title>
            <text x="752.5999999999999" y="693" font-family="monospace" font-size="13" fill="#222">
                <tspan x="752.5999999999999" y="693">(err)</tspan>
            </text>
            
            <text x="699.8" y="693" font-family="monospace" font-size="13" fill="#222">if</text> <text x="715.3999999999999" y="719.95" font-family="monospace" font-size="13" fill="#222">+</text> <text x="810.4999999999999" y="686.05" font-family="monospace" font-size="13" fill="#222">-</text>
        </g>
                <g>
                   <rect x="727.5999999999999" y="728" width="170.4" height="30" rx="2" ry="2" style="fill:#C5E1A5; stroke:#444; stroke-width:1"></rect>
                   <title>console.error(err)</title>
            <text x="742.5999999999999" y="748" font-family="monospace" font-size="13" fill="#222">
                <tspan x="742.5999999999999" y="748">console.error(err)</tspan>
            </text>
                   
                   
                </g>
                <g>
                   <rect x="727.5999999999999" y="776.5" width="318.59999999999997" height="30" rx="2" ry="2" style="fill:#C5E1A5; stroke:#444; stroke-width:1"></rect>
                   <title>logAudit(username, 'logout', user_ip)</title>
            <text x="742.5999999999999" y="796.5" font-family="monospace" font-size="13" fill="#222">
                <tspan x="742.5999999999999" y="796.5">logAudit(username, 'logout', user_ip)</tspan>
            </text>
                   
                   
                </g>
                <g>
                   <rect x="727.5999999999999" y="825" width="310.8" height="30" rx="2" ry="2" style="fill:#C5E1A5; stroke:#444; stroke-width:1"></rect>
                   <title>successRedirect(null, res, '/login')</title>
            <text x="742.5999999999999" y="845" font-family="monospace" font-size="13" fill="#222">
                <tspan x="742.5999999999999" y="845">successRedirect(null, res, '/login')</tspan>
            </text>
                   
                   
                </g>
                <g>
                   <rect x="1106.1999999999998" y="728" width="318.59999999999997" height="30" rx="2" ry="2" style="fill:#C5E1A5; stroke:#444; stroke-width:1"></rect>
                   <title>logAudit(username, 'logout', user_ip)</title>
            <text x="1121.1999999999998" y="748" font-family="monospace" font-size="13" fill="#222">
                <tspan x="1121.1999999999998" y="748">logAudit(username, 'logout', user_ip)</tspan>
            </text>
                   
                   
                </g>
                <g>
                   <rect x="1106.1999999999998" y="776.5" width="217.2" height="30" rx="2" ry="2" style="fill:#C5E1A5; stroke:#444; stroke-width:1"></rect>
                   <title>res.clearCookie('token')</title>
            <text x="1121.1999999999998" y="796.5" font-family="monospace" font-size="13" fill="#222">
                <tspan x="1121.1999999999998" y="796.5">res.clearCookie('token')</tspan>
            </text>
                   
                   
                </g>
                <g>
                   <rect x="1106.1999999999998" y="825" width="443.4" height="30" rx="2" ry="2" style="fill:#C5E1A5; stroke:#444; stroke-width:1"></rect>
                   <title>redisClient.client.del(req.signedCookies.token, *())</title>
            <text x="1121.1999999999998" y="845" font-family="monospace" font-size="13" fill="#222">
                <tspan x="1121.1999999999998" y="845">redisClient.client.del(req.signedCookies.token, *(...</tspan>
            </text>
                   
                   
                </g>
            <g>
                <rect x="1143.1999999999998" y="873.5" width="213.79999999999998" height="30" style="fill:#a5d6a7; stroke:#444; stroke-width:1"></rect>
                    
                <line x1="1153.1999999999998" y1="873.5" x2="1153.1999999999998" y2="903.5" style="fill:#a5d6a7; stroke:#444; stroke-width:1"></line>
                <line x1="1346.9999999999998" y1="873.5" x2="1346.9999999999998" y2="903.5" style="fill:#a5d6a7; stroke:#444; stroke-width:1"></line>
             
                <title>function(err, result)</title>
            <text x="1168.1999999999998" y="893.5" font-family="monospace" font-size="13" fill="#222">
                <tspan x="1168.1999999999998" y="893.5">function(err, result)</tspan>
            </text>
                
            </g><g>
            <rect x="1210.1999999999998" y="937" width="99" height="30" rx="3" ry="3" style="fill:#ce93d8; stroke:#444; stroke-width:1"></rect>                
            <polygon points="1180.1999999999998,952 1210.1999999999998,922 1240.1999999999998,952 1210.1999999999998,982" style="fill:#ce93d8; stroke:#444; stroke-width:1"></polygon>
            <title>(err)</title>
            <text x="1255.1999999999998" y="957" font-family="monospace" font-size="13" fill="#222">
                <tspan x="1255.1999999999998" y="957">(err)</tspan>
            </text>
            
            <text x="1202.3999999999999" y="957" font-family="monospace" font-size="13" fill="#222">if</text> <text x="1217.9999999999998" y="983.95" font-family="monospace" font-size="13" fill="#222">+</text> <text x="1313.1" y="950.05" font-family="monospace" font-size="13" fill="#222">-</text>
        </g>
                <g>
                   <rect x="1230.1999999999998" y="992" width="170.4" height="30" rx="2" ry="2" style="fill:#C5E1A5; stroke:#444; stroke-width:1"></rect>
                   <title>console.error(err)</title>
            <text x="1245.1999999999998" y="1012" font-family="monospace" font-size="13" fill="#222">
                <tspan x="1245.1999999999998" y="1012">console.error(err)</tspan>
            </text>
                   
                   
                </g>
                <g>
                   <rect x="1230.1999999999998" y="1040.5" width="318.59999999999997" height="30" rx="2" ry="2" style="fill:#C5E1A5; stroke:#444; stroke-width:1"></rect>
                   <title>logAudit(username, 'logout', user_ip)</title>
            <text x="1245.1999999999998" y="1060.5" font-family="monospace" font-size="13" fill="#222">
                <tspan x="1245.1999999999998" y="1060.5">logAudit(username, 'logout', user_ip)</tspan>
            </text>
                   
                   
                </g>
                <g>
                   <rect x="1230.1999999999998" y="1089" width="310.8" height="30" rx="2" ry="2" style="fill:#C5E1A5; stroke:#444; stroke-width:1"></rect>
                   <title>successRedirect(null, res, '/login')</title>
            <text x="1245.1999999999998" y="1109" font-family="monospace" font-size="13" fill="#222">
                <tspan x="1245.1999999999998" y="1109">successRedirect(null, res, '/login')</tspan>
            </text>
                   
                   
                </g>
                <g>
                   <rect x="1608.7999999999997" y="992" width="240.6" height="30" rx="3" ry="3" style="fill:#90caf9; stroke:#444; stroke-width:1"></rect>
                   <title>let response = await result</title>
            <text x="1623.7999999999997" y="1012" font-family="monospace" font-size="13" fill="#222">
                <tspan x="1623.7999999999997" y="1012">let response = await result</tspan>
            </text>
                   
                   
                </g>
                <g>
                   <rect x="1645.7999999999997" y="1040.5" width="76.8" height="30" rx="3" ry="3" style="fill:#90caf9; stroke:#444; stroke-width:1"></rect>
                   <title>result</title>
            <text x="1660.7999999999997" y="1060.5" font-family="monospace" font-size="13" fill="#222">
                <tspan x="1660.7999999999997" y="1060.5">result</tspan>
            </text>
                   
                   
                </g><g>
            <rect x="1638.7999999999997" y="1104" width="177" height="30" rx="3" ry="3" style="fill:#ce93d8; stroke:#444; stroke-width:1"></rect>                
            <polygon points="1608.7999999999997,1119 1638.7999999999997,1089 1668.7999999999997,1119 1638.7999999999997,1149" style="fill:#ce93d8; stroke:#444; stroke-width:1"></polygon>
            <title>(response == 1)</title>
            <text x="1683.7999999999997" y="1124" font-family="monospace" font-size="13" fill="#222">
                <tspan x="1683.7999999999997" y="1124">(response == 1)</tspan>
            </text>
            
            <text x="1630.9999999999998" y="1124" font-family="monospace" font-size="13" fill="#222">if</text> <text x="1646.5999999999997" y="1150.95" font-family="monospace" font-size="13" fill="#222">+</text> <text x="1819.6999999999998" y="1117.05" font-family="monospace" font-size="13" fill="#222">-</text>
        </g>
                <g>
                   <rect x="1658.7999999999997" y="1159" width="318.59999999999997" height="30" rx="2" ry="2" style="fill:#C5E1A5; stroke:#444; stroke-width:1"></rect>
                   <title>logAudit(username, 'logout', user_ip)</title>
            <text x="1673.7999999999997" y="1179" font-family="monospace" font-size="13" fill="#222">
                <tspan x="1673.7999999999997" y="1179">logAudit(username, 'logout', user_ip)</tspan>
            </text>
                   
                   
                </g>
                <g>
                   <rect x="1658.7999999999997" y="1207.5" width="310.8" height="30" rx="2" ry="2" style="fill:#C5E1A5; stroke:#444; stroke-width:1"></rect>
                   <title>successRedirect(null, res, '/login')</title>
            <text x="1673.7999999999997" y="1227.5" font-family="monospace" font-size="13" fill="#222">
                <tspan x="1673.7999999999997" y="1227.5">successRedirect(null, res, '/login')</tspan>
            </text>
                   
                   
                </g>
                <g>
                   <rect x="2037.3999999999996" y="1159" width="264" height="30" rx="2" ry="2" style="fill:#C5E1A5; stroke:#444; stroke-width:1"></rect>
                   <title>console.log('error in logout')</title>
            <text x="2052.3999999999996" y="1179" font-family="monospace" font-size="13" fill="#222">
                <tspan x="2052.3999999999996" y="1179">console.log('error in logout')</tspan>
            </text>
                   
                   
                </g>
            <g>
               <rect x="25" y="13.75" width="216.6" height="24" style="fill:#fff59d; stroke:#444; stroke-width:1"></rect>
               <circle cx="25" cy="25" r="15" style="fill:#fff59d; stroke:#444; stroke-width:1"></circle>
               <title>Program: source module</title>
            <text x="55" y="30" font-family="monospace" font-size="13" fill="#222">
                <tspan x="55" y="30">Program: source module</tspan>
            </text>
            </g>
            <g>
               <path d="M25, 40 L25 91 Q25 95
                29 95
                L42 95 " style="fill:none; stroke:#444; stroke-width:1"></path>
               <path d="M42, 92 L50, 95 L42, 98 Z" fill="#333"></path>
            </g>
            <g>
               <path d="M68.5, 110 L68.5 139.5 Q68.5 143.5
                72.5 143.5
                L79 143.5 " style="fill:none; stroke:#444; stroke-width:1"></path>
               <path d="M79, 140.5 L87, 143.5 L79, 146.5 Z" fill="#333"></path>
            </g>
            <g>
               <path d="M68.5, 110 L68.5 203 Q68.5 207
                72.5 207
                L79 207 " style="fill:none; stroke:#444; stroke-width:1"></path>
               <path d="M79, 204 L87, 207 L79, 210 Z" fill="#333"></path>
            </g>
            <g>
               <path d="M117, 237 L117 258 Q117 262
                121 262
                L129 262 " style="fill:none; stroke:#444; stroke-width:1"></path>
               <path d="M129, 259 L137, 262 L129, 265 Z" fill="#333"></path>
            </g>
            <g>
               <path d="M543.5999999999999, 207 L579.5999999999999 207  Q583.5999999999999 207
                583.5999999999999 211
                L583.5999999999999 254 Q583.5999999999999 262
                587.5999999999999 262
                L595.5999999999999 262 " style="fill:none; stroke:#444; stroke-width:1"></path>
               <path d="M595.5999999999999, 259 L603.5999999999999, 262 L595.5999999999999, 265 Z" fill="#333"></path>
            </g>
            <g>
               <path d="M622.0999999999999, 277 L622.0999999999999 306.5 Q622.0999999999999 310.5
                626.0999999999999 310.5
                L640.5999999999999 310.5 " style="fill:none; stroke:#444; stroke-width:1"></path>
               false
            </g>
            <g>
               <path d="M659.0999999999999, 325.5 L659.0999999999999 355 Q659.0999999999999 359
                663.0999999999999 359
                L669.5999999999999 359 " style="fill:none; stroke:#444; stroke-width:1"></path>
               <path d="M669.5999999999999, 356 L677.5999999999999, 359 L669.5999999999999, 362 Z" fill="#333"></path>
            </g>
            <g>
               <path d="M659.0999999999999, 325.5 L659.0999999999999 418.5 Q659.0999999999999 422.5
                663.0999999999999 422.5
                L669.5999999999999 422.5 " style="fill:none; stroke:#444; stroke-width:1"></path>
               <path d="M669.5999999999999, 419.5 L677.5999999999999, 422.5 L669.5999999999999, 425.5 Z" fill="#333"></path>
            </g>
            <g>
               <path d="M707.5999999999999, 452.5 L707.5999999999999 473.5 Q707.5999999999999 477.5
                711.5999999999999 477.5
                L719.5999999999999 477.5 " style="fill:none; stroke:#444; stroke-width:1"></path>
               <path d="M719.5999999999999, 474.5 L727.5999999999999, 477.5 L719.5999999999999, 480.5 Z" fill="#333"></path>
            </g>
            <g>
               <path d="M707.5999999999999, 452.5 L707.5999999999999 522 Q707.5999999999999 526
                711.5999999999999 526
                L719.5999999999999 526 " style="fill:none; stroke:#444; stroke-width:1"></path>
               <path d="M719.5999999999999, 523 L727.5999999999999, 526 L719.5999999999999, 529 Z" fill="#333"></path>
            </g>
            <g>
               <path d="M707.5999999999999, 452.5 L707.5999999999999 570.5 Q707.5999999999999 574.5
                711.5999999999999 574.5
                L719.5999999999999 574.5 " style="fill:none; stroke:#444; stroke-width:1"></path>
               <path d="M719.5999999999999, 571.5 L727.5999999999999, 574.5 L719.5999999999999, 577.5 Z" fill="#333"></path>
            </g>
            <g>
               <path d="M659.0999999999999, 325.5 L659.0999999999999 620.5 Q659.0999999999999 624.5
                663.0999999999999 624.5
                L669.5999999999999 624.5 " style="fill:none; stroke:#444; stroke-width:1"></path>
               <path d="M669.5999999999999, 621.5 L677.5999999999999, 624.5 L669.5999999999999, 627.5 Z" fill="#333"></path>
            </g>
            <g>
               <path d="M659.0999999999999, 325.5 L659.0999999999999 684 Q659.0999999999999 688
                663.0999999999999 688
                L669.5999999999999 688 " style="fill:none; stroke:#444; stroke-width:1"></path>
               <path d="M669.5999999999999, 685 L677.5999999999999, 688 L669.5999999999999, 691 Z" fill="#333"></path>
            </g>
            <g>
               <path d="M707.5999999999999, 718 L707.5999999999999 739 Q707.5999999999999 743
                711.5999999999999 743
                L719.5999999999999 743 " style="fill:none; stroke:#444; stroke-width:1"></path>
               <path d="M719.5999999999999, 740 L727.5999999999999, 743 L719.5999999999999, 746 Z" fill="#333"></path>
            </g>
            <g>
               <path d="M707.5999999999999, 718 L707.5999999999999 787.5 Q707.5999999999999 791.5
                711.5999999999999 791.5
                L719.5999999999999 791.5 " style="fill:none; stroke:#444; stroke-width:1"></path>
               <path d="M719.5999999999999, 788.5 L727.5999999999999, 791.5 L719.5999999999999, 794.5 Z" fill="#333"></path>
            </g>
            <g>
               <path d="M707.5999999999999, 718 L707.5999999999999 836 Q707.5999999999999 840
                711.5999999999999 840
                L719.5999999999999 840 " style="fill:none; stroke:#444; stroke-width:1"></path>
               <path d="M719.5999999999999, 837 L727.5999999999999, 840 L719.5999999999999, 843 Z" fill="#333"></path>
            </g>
            <g>
               <path d="M806.5999999999999, 688 L1082.1999999999998 688  Q1086.1999999999998 688
                1086.1999999999998 692
                L1086.1999999999998 735 Q1086.1999999999998 743
                1090.1999999999998 743
                L1098.1999999999998 743 " style="fill:none; stroke:#444; stroke-width:1"></path>
               <path d="M1098.1999999999998, 740 L1106.1999999999998, 743 L1098.1999999999998, 746 Z" fill="#333"></path>
            </g>
            <g>
               <path d="M806.5999999999999, 688 L1082.1999999999998 688  Q1086.1999999999998 688
                1086.1999999999998 692
                L1086.1999999999998 783.5 Q1086.1999999999998 791.5
                1090.1999999999998 791.5
                L1098.1999999999998 791.5 " style="fill:none; stroke:#444; stroke-width:1"></path>
               <path d="M1098.1999999999998, 788.5 L1106.1999999999998, 791.5 L1098.1999999999998, 794.5 Z" fill="#333"></path>
            </g>
            <g>
               <path d="M806.5999999999999, 688 L1082.1999999999998 688  Q1086.1999999999998 688
                1086.1999999999998 692
                L1086.1999999999998 832 Q1086.1999999999998 840
                1090.1999999999998 840
                L1098.1999999999998 840 " style="fill:none; stroke:#444; stroke-width:1"></path>
               <path d="M1098.1999999999998, 837 L1106.1999999999998, 840 L1098.1999999999998, 843 Z" fill="#333"></path>
            </g>
            <g>
               <path d="M1124.6999999999998, 855 L1124.6999999999998 884.5 Q1124.6999999999998 888.5
                1128.6999999999998 888.5
                L1143.1999999999998 888.5 " style="fill:none; stroke:#444; stroke-width:1"></path>
               false
            </g>
            <g>
               <path d="M1161.6999999999998, 903.5 L1161.6999999999998 948 Q1161.6999999999998 952
                1165.6999999999998 952
                L1172.1999999999998 952 " style="fill:none; stroke:#444; stroke-width:1"></path>
               <path d="M1172.1999999999998, 949 L1180.1999999999998, 952 L1172.1999999999998, 955 Z" fill="#333"></path>
            </g>
            <g>
               <path d="M1210.1999999999998, 982 L1210.1999999999998 1003 Q1210.1999999999998 1007
                1214.1999999999998 1007
                L1222.1999999999998 1007 " style="fill:none; stroke:#444; stroke-width:1"></path>
               <path d="M1222.1999999999998, 1004 L1230.1999999999998, 1007 L1222.1999999999998, 1010 Z" fill="#333"></path>
            </g>
            <g>
               <path d="M1210.1999999999998, 982 L1210.1999999999998 1051.5 Q1210.1999999999998 1055.5
                1214.1999999999998 1055.5
                L1222.1999999999998 1055.5 " style="fill:none; stroke:#444; stroke-width:1"></path>
               <path d="M1222.1999999999998, 1052.5 L1230.1999999999998, 1055.5 L1222.1999999999998, 1058.5 Z" fill="#333"></path>
            </g>
            <g>
               <path d="M1210.1999999999998, 982 L1210.1999999999998 1100 Q1210.1999999999998 1104
                1214.1999999999998 1104
                L1222.1999999999998 1104 " style="fill:none; stroke:#444; stroke-width:1"></path>
               <path d="M1222.1999999999998, 1101 L1230.1999999999998, 1104 L1222.1999999999998, 1107 Z" fill="#333"></path>
            </g>
            <g>
               <path d="M1309.1999999999998, 952 L1584.7999999999997 952  Q1588.7999999999997 952
                1588.7999999999997 956
                L1588.7999999999997 999 Q1588.7999999999997 1007
                1592.7999999999997 1007
                L1600.7999999999997 1007 " style="fill:none; stroke:#444; stroke-width:1"></path>
               <path d="M1600.7999999999997, 1004 L1608.7999999999997, 1007 L1600.7999999999997, 1010 Z" fill="#333"></path>
            </g>
            <g>
               <path d="M1627.2999999999997, 1022 L1627.2999999999997 1051.5 Q1627.2999999999997 1055.5
                1631.2999999999997 1055.5
                L1637.7999999999997 1055.5 " style="fill:none; stroke:#444; stroke-width:1"></path>
               <path d="M1637.7999999999997, 1052.5 L1645.7999999999997, 1055.5 L1637.7999999999997, 1058.5 Z" fill="#333"></path>
            </g>
            <g>
               <path d="M1309.1999999999998, 952 L1584.7999999999997 952  Q1588.7999999999997 952
                1588.7999999999997 956
                L1588.7999999999997 1111 Q1588.7999999999997 1119
                1592.7999999999997 1119
                L1600.7999999999997 1119 " style="fill:none; stroke:#444; stroke-width:1"></path>
               <path d="M1600.7999999999997, 1116 L1608.7999999999997, 1119 L1600.7999999999997, 1122 Z" fill="#333"></path>
            </g>
            <g>
               <path d="M1638.7999999999997, 1149 L1638.7999999999997 1170 Q1638.7999999999997 1174
                1642.7999999999997 1174
                L1650.7999999999997 1174 " style="fill:none; stroke:#444; stroke-width:1"></path>
               <path d="M1650.7999999999997, 1171 L1658.7999999999997, 1174 L1650.7999999999997, 1177 Z" fill="#333"></path>
            </g>
            <g>
               <path d="M1638.7999999999997, 1149 L1638.7999999999997 1218.5 Q1638.7999999999997 1222.5
                1642.7999999999997 1222.5
                L1650.7999999999997 1222.5 " style="fill:none; stroke:#444; stroke-width:1"></path>
               <path d="M1650.7999999999997, 1219.5 L1658.7999999999997, 1222.5 L1650.7999999999997, 1225.5 Z" fill="#333"></path>
            </g>
            <g>
               <path d="M1815.7999999999997, 1119 L2013.3999999999996 1119  Q2017.3999999999996 1119
                2017.3999999999996 1123
                L2017.3999999999996 1166 Q2017.3999999999996 1174
                2021.3999999999996 1174
                L2029.3999999999996 1174 " style="fill:none; stroke:#444; stroke-width:1"></path>
               <path d="M2029.3999999999996, 1171 L2037.3999999999996, 1174 L2029.3999999999996, 1177 Z" fill="#333"></path>
            </g>
            </svg>