<svg width="1162pt" height="1900pt" xmlns="http://www.w3.org/2000/svg" xmlns:xlink="http://www.w3.org/1999/xlink" xmlns:ev="http://www.w3.org/2001/xml-events" style="overflow: hidden; "><g id="viewport-20241014074249002" class="svg-pan-zoom_viewport" transform="matrix(0.4050711940796174,0,0,0.4050711940796174,365.60082036106274,30.583335476307788)" style="transform: matrix(0.405071, 0, 0, 0.405071, 365.601, 30.5833);">
<g id="graph0" class="graph" transform="scale(1 1) rotate(0) translate(4 1896)">
<title>G</title>
<!-- subject_master -->
<g id="node1" class="node">
<title>subject_master</title>
<polygon fill="blue" stroke="none" points="565,-1568 565,-1628 1152,-1628 1152,-1568 565,-1568"></polygon>
<polygon fill="none" stroke="#29235c" points="565,-1568 565,-1628 1152,-1628 1152,-1568 565,-1568"></polygon>
<text text-anchor="start" x="741.11" y="-1589.2" font-family="Helvetica,sans-Serif" font-weight="bold" font-size="32.00" fill="#ffffff">subject_master</text>
<polygon fill="#e7e2dd" stroke="none" points="565,-1508 565,-1568 1152,-1568 1152,-1508 565,-1508"></polygon>
<polygon fill="none" stroke="#29235c" points="565,-1508 565,-1568 1152,-1568 1152,-1508 565,-1508"></polygon>
<text text-anchor="start" x="576" y="-1528.2" font-family="Helvetica,sans-Serif" font-size="32.00" fill="#29235c">id &#160;&#160;</text>
<polygon fill="#e7e2dd" stroke="none" points="797.14,-1518.6 797.14,-1557 1141,-1557 1141,-1518.6 797.14,-1518.6"></polygon>
<text text-anchor="start" x="966.7" y="-1529.2" font-family="Helvetica,sans-Serif" font-style="italic" font-size="32.00" fill="#29235c">SERIAL &#160;&#160;pk</text>
<polygon fill="#ffffff" stroke="none" points="565,-1448 565,-1508 1152,-1508 1152,-1448 565,-1448"></polygon>
<polygon fill="none" stroke="#29235c" points="565,-1448 565,-1508 1152,-1508 1152,-1448 565,-1448"></polygon>
<text text-anchor="start" x="576" y="-1468.2" font-family="Helvetica,sans-Serif" font-size="32.00" fill="#29235c">subject_name &#160;&#160;</text>
<polygon fill="#ffffff" stroke="none" points="842.53,-1458.6 842.53,-1497 1141,-1497 1141,-1458.6 842.53,-1458.6"></polygon>
<text text-anchor="start" x="883.16" y="-1469.2" font-family="Helvetica,sans-Serif" font-style="italic" font-size="32.00" fill="#29235c">VARCHAR(255) &#160;&#160;</text>
<polygon fill="#e7e2dd" stroke="none" points="565,-1388 565,-1448 1152,-1448 1152,-1388 565,-1388"></polygon>
<polygon fill="none" stroke="#29235c" points="565,-1388 565,-1448 1152,-1448 1152,-1388 565,-1388"></polygon>
<text text-anchor="start" x="576" y="-1408.2" font-family="Helvetica,sans-Serif" font-size="32.00" fill="#29235c">sap_subject_id &#160;&#160;</text>
<polygon fill="#e7e2dd" stroke="none" points="858.55,-1398.6 858.55,-1437 1141,-1437 1141,-1398.6 858.55,-1398.6"></polygon>
<text text-anchor="start" x="900.95" y="-1409.2" font-family="Helvetica,sans-Serif" font-style="italic" font-size="32.00" fill="#29235c">VARCHAR(50) &#160;&#160;</text>
<polygon fill="#ffffff" stroke="none" points="565,-1328 565,-1388 1152,-1388 1152,-1328 565,-1328"></polygon>
<polygon fill="none" stroke="#29235c" points="565,-1328 565,-1388 1152,-1388 1152,-1328 565,-1328"></polygon>
<text text-anchor="start" x="576" y="-1348.2" font-family="Helvetica,sans-Serif" font-size="32.00" fill="#29235c">department &#160;&#160;</text>
<polygon fill="#ffffff" stroke="none" points="823.85,-1338.6 823.85,-1377 1141,-1377 1141,-1338.6 823.85,-1338.6"></polygon>
<text text-anchor="start" x="883.16" y="-1349.2" font-family="Helvetica,sans-Serif" font-style="italic" font-size="32.00" fill="#29235c">VARCHAR(255) &#160;&#160;</text>
<polygon fill="#e7e2dd" stroke="none" points="565,-1268 565,-1328 1152,-1328 1152,-1268 565,-1268"></polygon>
<polygon fill="none" stroke="#29235c" points="565,-1268 565,-1328 1152,-1328 1152,-1268 565,-1268"></polygon>
<text text-anchor="start" x="576" y="-1288.2" font-family="Helvetica,sans-Serif" font-size="32.00" fill="#29235c">sap_subject_abbr &#160;&#160;</text>
<polygon fill="#e7e2dd" stroke="none" points="878.12,-1278.6 878.12,-1317 1141,-1317 1141,-1278.6 878.12,-1278.6"></polygon>
<text text-anchor="start" x="900.95" y="-1289.2" font-family="Helvetica,sans-Serif" font-style="italic" font-size="32.00" fill="#29235c">VARCHAR(50) &#160;&#160;</text>
<polygon fill="#ffffff" stroke="none" points="565,-1208 565,-1268 1152,-1268 1152,-1208 565,-1208"></polygon>
<polygon fill="none" stroke="#29235c" points="565,-1208 565,-1268 1152,-1268 1152,-1208 565,-1208"></polygon>
<text text-anchor="start" x="576" y="-1228.2" font-family="Helvetica,sans-Serif" font-size="32.00" fill="#29235c">acad_year &#160;&#160;</text>
<polygon fill="#ffffff" stroke="none" points="862.1,-1218.6 862.1,-1257 1141,-1257 1141,-1218.6 862.1,-1218.6"></polygon>
<text text-anchor="start" x="972.09" y="-1229.2" font-family="Helvetica,sans-Serif" font-style="italic" font-size="32.00" fill="#29235c">INTEGER &#160;&#160;</text>
<polygon fill="#e7e2dd" stroke="none" points="565,-1148 565,-1208 1152,-1208 1152,-1148 565,-1148"></polygon>
<polygon fill="none" stroke="#29235c" points="565,-1148 565,-1208 1152,-1208 1152,-1148 565,-1148"></polygon>
<text text-anchor="start" x="576" y="-1168.2" font-family="Helvetica,sans-Serif" font-size="32.00" fill="#29235c">acad_session &#160;&#160;</text>
<polygon fill="#e7e2dd" stroke="none" points="849.66,-1158.6 849.66,-1197 1141,-1197 1141,-1158.6 849.66,-1158.6"></polygon>
<text text-anchor="start" x="900.95" y="-1169.2" font-family="Helvetica,sans-Serif" font-style="italic" font-size="32.00" fill="#29235c">VARCHAR(50) &#160;&#160;</text>
<polygon fill="#ffffff" stroke="none" points="565,-1088 565,-1148 1152,-1148 1152,-1088 565,-1088"></polygon>
<polygon fill="none" stroke="#29235c" points="565,-1088 565,-1148 1152,-1148 1152,-1088 565,-1088"></polygon>
<text text-anchor="start" x="576" y="-1108.2" font-family="Helvetica,sans-Serif" font-size="32.00" fill="#29235c">program_id &#160;&#160;</text>
<polygon fill="#ffffff" stroke="none" points="868.31,-1098.6 868.31,-1137 1141,-1137 1141,-1098.6 868.31,-1098.6"></polygon>
<text text-anchor="start" x="972.09" y="-1109.2" font-family="Helvetica,sans-Serif" font-style="italic" font-size="32.00" fill="#29235c">INTEGER &#160;&#160;</text>
<polygon fill="#e7e2dd" stroke="none" points="565,-1028 565,-1088 1152,-1088 1152,-1028 565,-1028"></polygon>
<polygon fill="none" stroke="#29235c" points="565,-1028 565,-1088 1152,-1088 1152,-1028 565,-1028"></polygon>
<text text-anchor="start" x="576" y="-1048.2" font-family="Helvetica,sans-Serif" font-size="32.00" fill="#29235c">question_paper_type &#160;&#160;</text>
<polygon fill="#e7e2dd" stroke="none" points="901.58,-1038.6 901.58,-1077 1141.62,-1077 1141.62,-1038.6 901.58,-1038.6"></polygon>
<text text-anchor="start" x="901.58" y="-1049.2" font-family="Helvetica,sans-Serif" font-style="italic" font-size="32.00" fill="#29235c">VARCHAR(10) &#160;&#160;</text>
<polygon fill="#ffffff" stroke="none" points="565,-968 565,-1028 1152,-1028 1152,-968 565,-968"></polygon>
<polygon fill="none" stroke="#29235c" points="565,-968 565,-1028 1152,-1028 1152,-968 565,-968"></polygon>
<text text-anchor="start" x="576" y="-988.2" font-family="Helvetica,sans-Serif" font-size="32.00" fill="#29235c">enabled &#160;&#160;</text>
<polygon fill="#ffffff" stroke="none" points="838.09,-978.6 838.09,-1017 1141,-1017 1141,-978.6 838.09,-978.6"></polygon>
<text text-anchor="start" x="959.61" y="-989.2" font-family="Helvetica,sans-Serif" font-style="italic" font-size="32.00" fill="#29235c">BOOLEAN &#160;&#160;</text>
<polygon fill="none" stroke="#29235c" stroke-width="2" points="564,-967 564,-1629 1153,-1629 1153,-967 564,-967"></polygon>
</g>
<!-- program_master -->
<g id="node2" class="node">
<title>program_master</title>
<polygon fill="blue" stroke="none" points="2,-1830 2,-1890 525,-1890 525,-1830 2,-1830"></polygon>
<polygon fill="none" stroke="#29235c" points="2,-1830 2,-1890 525,-1890 525,-1830 2,-1830"></polygon>
<text text-anchor="start" x="137.23" y="-1851.2" font-family="Helvetica,sans-Serif" font-weight="bold" font-size="32.00" fill="#ffffff">program_master</text>
<polygon fill="#e7e2dd" stroke="none" points="2,-1770 2,-1830 525,-1830 525,-1770 2,-1770"></polygon>
<polygon fill="none" stroke="#29235c" points="2,-1770 2,-1830 525,-1830 525,-1770 2,-1770"></polygon>
<text text-anchor="start" x="13" y="-1790.2" font-family="Helvetica,sans-Serif" font-size="32.00" fill="#29235c">id &#160;&#160;</text>
<polygon fill="#e7e2dd" stroke="none" points="202.14,-1780.6 202.14,-1819 514,-1819 514,-1780.6 202.14,-1780.6"></polygon>
<text text-anchor="start" x="339.7" y="-1791.2" font-family="Helvetica,sans-Serif" font-style="italic" font-size="32.00" fill="#29235c">SERIAL &#160;&#160;pk</text>
<polygon fill="#ffffff" stroke="none" points="2,-1710 2,-1770 525,-1770 525,-1710 2,-1710"></polygon>
<polygon fill="none" stroke="#29235c" points="2,-1710 2,-1770 525,-1770 525,-1710 2,-1710"></polygon>
<text text-anchor="start" x="13" y="-1730.2" font-family="Helvetica,sans-Serif" font-size="32.00" fill="#29235c">program_id &#160;&#160;</text>
<polygon fill="#ffffff" stroke="none" points="237.74,-1720.6 237.74,-1759 514,-1759 514,-1720.6 237.74,-1720.6"></polygon>
<text text-anchor="start" x="273.95" y="-1731.2" font-family="Helvetica,sans-Serif" font-style="italic" font-size="32.00" fill="#29235c">VARCHAR(50) &#160;&#160;</text>
<polygon fill="#e7e2dd" stroke="none" points="2,-1650 2,-1710 525,-1710 525,-1650 2,-1650"></polygon>
<polygon fill="none" stroke="#29235c" points="2,-1650 2,-1710 525,-1710 525,-1650 2,-1650"></polygon>
<text text-anchor="start" x="13" y="-1670.2" font-family="Helvetica,sans-Serif" font-size="32.00" fill="#29235c">program_name &#160;&#160;</text>
<polygon fill="#e7e2dd" stroke="none" points="256.67,-1660.6 256.67,-1699 514.52,-1699 514.52,-1660.6 256.67,-1660.6"></polygon>
<text text-anchor="start" x="256.67" y="-1671.2" font-family="Helvetica,sans-Serif" font-style="italic" font-size="32.00" fill="#29235c">VARCHAR(255) &#160;&#160;</text>
<polygon fill="#ffffff" stroke="none" points="2,-1590 2,-1650 525,-1650 525,-1590 2,-1590"></polygon>
<polygon fill="none" stroke="#29235c" points="2,-1590 2,-1650 525,-1650 525,-1590 2,-1590"></polygon>
<text text-anchor="start" x="13" y="-1610.2" font-family="Helvetica,sans-Serif" font-size="32.00" fill="#29235c">program_code &#160;&#160;</text>
<polygon fill="#ffffff" stroke="none" points="259.98,-1600.6 259.98,-1639 514,-1639 514,-1600.6 259.98,-1600.6"></polygon>
<text text-anchor="start" x="273.95" y="-1611.2" font-family="Helvetica,sans-Serif" font-style="italic" font-size="32.00" fill="#29235c">VARCHAR(50) &#160;&#160;</text>
<polygon fill="#e7e2dd" stroke="none" points="2,-1530 2,-1590 525,-1590 525,-1530 2,-1530"></polygon>
<polygon fill="none" stroke="#29235c" points="2,-1530 2,-1590 525,-1590 525,-1530 2,-1530"></polygon>
<text text-anchor="start" x="13" y="-1550.2" font-family="Helvetica,sans-Serif" font-size="32.00" fill="#29235c">enabled &#160;&#160;</text>
<polygon fill="#e7e2dd" stroke="none" points="243.09,-1540.6 243.09,-1579 514,-1579 514,-1540.6 243.09,-1540.6"></polygon>
<text text-anchor="start" x="332.61" y="-1551.2" font-family="Helvetica,sans-Serif" font-style="italic" font-size="32.00" fill="#29235c">BOOLEAN &#160;&#160;</text>
<polygon fill="none" stroke="#29235c" stroke-width="2" points="1,-1529 1,-1891 526,-1891 526,-1529 1,-1529"></polygon>
</g>
<!-- program_master&#45;&gt;subject_master -->
<!-- program_master&#45;&gt;subject_master -->
<g id="edge2" class="edge">
<title>program_master:e-&gt;subject_master:w</title>
<path fill="none" stroke="#94a3b8" d="M526.5,-1740C591.95,-1740 504.85,-1184.17 553.62,-1123.38"></path>
<polygon fill="#94a3b8" stroke="#94a3b8" points="555.06,-1126.58 562.17,-1118.72 551.71,-1120.43 555.06,-1126.58"></polygon>
</g>
<!-- campus_master -->
<g id="node3" class="node">
<title>campus_master</title>
<polygon fill="blue" stroke="none" points="600.5,-886 600.5,-946 1116.5,-946 1116.5,-886 600.5,-886"></polygon>
<polygon fill="none" stroke="#29235c" points="600.5,-886 600.5,-946 1116.5,-946 1116.5,-886 600.5,-886"></polygon>
<text text-anchor="start" x="736.66" y="-907.2" font-family="Helvetica,sans-Serif" font-weight="bold" font-size="32.00" fill="#ffffff">campus_master</text>
<polygon fill="#e7e2dd" stroke="none" points="600.5,-826 600.5,-886 1116.5,-886 1116.5,-826 600.5,-826"></polygon>
<polygon fill="none" stroke="#29235c" points="600.5,-826 600.5,-886 1116.5,-886 1116.5,-826 600.5,-826"></polygon>
<text text-anchor="start" x="611.5" y="-846.2" font-family="Helvetica,sans-Serif" font-size="32.00" fill="#29235c">id &#160;&#160;</text>
<polygon fill="#e7e2dd" stroke="none" points="797.14,-836.6 797.14,-875 1105.5,-875 1105.5,-836.6 797.14,-836.6"></polygon>
<text text-anchor="start" x="931.2" y="-847.2" font-family="Helvetica,sans-Serif" font-style="italic" font-size="32.00" fill="#29235c">SERIAL &#160;&#160;pk</text>
<polygon fill="#ffffff" stroke="none" points="600.5,-766 600.5,-826 1116.5,-826 1116.5,-766 600.5,-766"></polygon>
<polygon fill="none" stroke="#29235c" points="600.5,-766 600.5,-826 1116.5,-826 1116.5,-766 600.5,-766"></polygon>
<text text-anchor="start" x="611.5" y="-786.2" font-family="Helvetica,sans-Serif" font-size="32.00" fill="#29235c">campus_id &#160;&#160;</text>
<polygon fill="#ffffff" stroke="none" points="862.06,-776.6 862.06,-815 1105.5,-815 1105.5,-776.6 862.06,-776.6"></polygon>
<text text-anchor="start" x="931.2" y="-787.2" font-family="Helvetica,sans-Serif" font-style="italic" font-size="32.00" fill="#29235c">SERIAL &#160;&#160;pk</text>
<polygon fill="#e7e2dd" stroke="none" points="600.5,-706 600.5,-766 1116.5,-766 1116.5,-706 600.5,-706"></polygon>
<polygon fill="none" stroke="#29235c" points="600.5,-706 600.5,-766 1116.5,-766 1116.5,-706 600.5,-706"></polygon>
<text text-anchor="start" x="611.5" y="-726.2" font-family="Helvetica,sans-Serif" font-size="32.00" fill="#29235c">campus_name &#160;&#160;</text>
<polygon fill="#e7e2dd" stroke="none" points="848.06,-716.6 848.06,-755 1105.91,-755 1105.91,-716.6 848.06,-716.6"></polygon>
<text text-anchor="start" x="848.06" y="-727.2" font-family="Helvetica,sans-Serif" font-style="italic" font-size="32.00" fill="#29235c">VARCHAR(255) &#160;&#160;</text>
<polygon fill="#ffffff" stroke="none" points="600.5,-646 600.5,-706 1116.5,-706 1116.5,-646 600.5,-646"></polygon>
<polygon fill="none" stroke="#29235c" points="600.5,-646 600.5,-706 1116.5,-706 1116.5,-646 600.5,-646"></polygon>
<text text-anchor="start" x="611.5" y="-666.2" font-family="Helvetica,sans-Serif" font-size="32.00" fill="#29235c">enabled &#160;&#160;</text>
<polygon fill="#ffffff" stroke="none" points="838.09,-656.6 838.09,-695 1105.5,-695 1105.5,-656.6 838.09,-656.6"></polygon>
<text text-anchor="start" x="924.11" y="-667.2" font-family="Helvetica,sans-Serif" font-style="italic" font-size="32.00" fill="#29235c">BOOLEAN &#160;&#160;</text>
<polygon fill="none" stroke="#29235c" stroke-width="2" points="599.5,-645 599.5,-947 1117.5,-947 1117.5,-645 599.5,-645"></polygon>
</g>
<!-- subject_campus -->
<g id="node4" class="node">
<title>subject_campus</title>
<polygon fill="blue" stroke="none" points="77.5,-1448 77.5,-1508 449.5,-1508 449.5,-1448 77.5,-1448"></polygon>
<polygon fill="none" stroke="#29235c" points="77.5,-1448 77.5,-1508 449.5,-1508 449.5,-1448 77.5,-1448"></polygon>
<text text-anchor="start" x="138.12" y="-1469.2" font-family="Helvetica,sans-Serif" font-weight="bold" font-size="32.00" fill="#ffffff">subject_campus</text>
<polygon fill="#e7e2dd" stroke="none" points="77.5,-1388 77.5,-1448 449.5,-1448 449.5,-1388 77.5,-1388"></polygon>
<polygon fill="none" stroke="#29235c" points="77.5,-1388 77.5,-1448 449.5,-1448 449.5,-1388 77.5,-1388"></polygon>
<text text-anchor="start" x="88.5" y="-1408.2" font-family="Helvetica,sans-Serif" font-size="32.00" fill="#29235c">id &#160;&#160;</text>
<polygon fill="#e7e2dd" stroke="none" points="202.14,-1398.6 202.14,-1437 438.5,-1437 438.5,-1398.6 202.14,-1398.6"></polygon>
<text text-anchor="start" x="264.2" y="-1409.2" font-family="Helvetica,sans-Serif" font-style="italic" font-size="32.00" fill="#29235c">SERIAL &#160;&#160;pk</text>
<polygon fill="#ffffff" stroke="none" points="77.5,-1328 77.5,-1388 449.5,-1388 449.5,-1328 77.5,-1328"></polygon>
<polygon fill="none" stroke="#29235c" points="77.5,-1328 77.5,-1388 449.5,-1388 449.5,-1328 77.5,-1328"></polygon>
<text text-anchor="start" x="88.5" y="-1348.2" font-family="Helvetica,sans-Serif" font-size="32.00" fill="#29235c">subject_id &#160;&#160;</text>
<polygon fill="#ffffff" stroke="none" points="264.43,-1338.6 264.43,-1377 438.5,-1377 438.5,-1338.6 264.43,-1338.6"></polygon>
<text text-anchor="start" x="269.59" y="-1349.2" font-family="Helvetica,sans-Serif" font-style="italic" font-size="32.00" fill="#29235c">INTEGER &#160;&#160;</text>
<polygon fill="#e7e2dd" stroke="none" points="77.5,-1268 77.5,-1328 449.5,-1328 449.5,-1268 77.5,-1268"></polygon>
<polygon fill="none" stroke="#29235c" points="77.5,-1268 77.5,-1328 449.5,-1328 449.5,-1268 77.5,-1268"></polygon>
<text text-anchor="start" x="88.5" y="-1288.2" font-family="Helvetica,sans-Serif" font-size="32.00" fill="#29235c">campus_id &#160;&#160;</text>
<polygon fill="#e7e2dd" stroke="none" points="269.92,-1278.6 269.92,-1317 438.83,-1317 438.83,-1278.6 269.92,-1278.6"></polygon>
<text text-anchor="start" x="269.92" y="-1289.2" font-family="Helvetica,sans-Serif" font-style="italic" font-size="32.00" fill="#29235c">INTEGER &#160;&#160;</text>
<polygon fill="#ffffff" stroke="none" points="77.5,-1208 77.5,-1268 449.5,-1268 449.5,-1208 77.5,-1208"></polygon>
<polygon fill="none" stroke="#29235c" points="77.5,-1208 77.5,-1268 449.5,-1268 449.5,-1208 77.5,-1208"></polygon>
<text text-anchor="start" x="88.5" y="-1228.2" font-family="Helvetica,sans-Serif" font-size="32.00" fill="#29235c">enabled &#160;&#160;</text>
<polygon fill="#ffffff" stroke="none" points="243.09,-1218.6 243.09,-1257 438.5,-1257 438.5,-1218.6 243.09,-1218.6"></polygon>
<text text-anchor="start" x="257.11" y="-1229.2" font-family="Helvetica,sans-Serif" font-style="italic" font-size="32.00" fill="#29235c">BOOLEAN &#160;&#160;</text>
<polygon fill="none" stroke="#29235c" stroke-width="2" points="76.5,-1207 76.5,-1509 450.5,-1509 450.5,-1207 76.5,-1207"></polygon>
</g>
<!-- subject_campus&#45;&gt;subject_master -->
<!-- subject_campus&#45;&gt;subject_master -->
<g id="edge4" class="edge">
<title>subject_campus:e-&gt;subject_master:w</title>
<path fill="none" stroke="#94a3b8" d="M450.5,-1358C493.95,-1358 513.12,-1510.33 552.68,-1534.72"></path>
<polygon fill="#94a3b8" stroke="#94a3b8" points="551.47,-1538.01 562.05,-1537.56 553.5,-1531.31 551.47,-1538.01"></polygon>
</g>
<!-- subject_campus&#45;&gt;campus_master -->
<!-- subject_campus&#45;&gt;campus_master -->
<g id="edge6" class="edge">
<title>subject_campus:e-&gt;campus_master:w</title>
<path fill="none" stroke="#94a3b8" d="M450.5,-1298C506.81,-1298 505.15,-1248.9 527,-1197 560.57,-1117.29 513.55,-824.06 588.15,-797.87"></path>
<polygon fill="#94a3b8" stroke="#94a3b8" points="588.71,-801.33 598.01,-796.25 587.57,-794.42 588.71,-801.33"></polygon>
</g>
<!-- users -->
<g id="node5" class="node">
<title>users</title>
<polygon fill="blue" stroke="none" points="626.5,-564 626.5,-624 1090.5,-624 1090.5,-564 626.5,-564"></polygon>
<polygon fill="none" stroke="#29235c" points="626.5,-564 626.5,-624 1090.5,-624 1090.5,-564 626.5,-564"></polygon>
<text text-anchor="start" x="815.8" y="-585.2" font-family="Helvetica,sans-Serif" font-weight="bold" font-size="32.00" fill="#ffffff">users</text>
<polygon fill="#e7e2dd" stroke="none" points="626.5,-504 626.5,-564 1090.5,-564 1090.5,-504 626.5,-504"></polygon>
<polygon fill="none" stroke="#29235c" points="626.5,-504 626.5,-564 1090.5,-564 1090.5,-504 626.5,-504"></polygon>
<text text-anchor="start" x="637.5" y="-524.2" font-family="Helvetica,sans-Serif" font-size="32.00" fill="#29235c">username &#160;&#160;</text>
<polygon fill="#e7e2dd" stroke="none" points="806.47,-514.6 806.47,-553 1080.31,-553 1080.31,-514.6 806.47,-514.6"></polygon>
<text text-anchor="start" x="806.47" y="-525.2" font-family="Helvetica,sans-Serif" font-style="italic" font-size="32.00" fill="#29235c">VARCHAR(50) &#160;&#160;pk</text>
<polygon fill="#ffffff" stroke="none" points="626.5,-444 626.5,-504 1090.5,-504 1090.5,-444 626.5,-444"></polygon>
<polygon fill="none" stroke="#29235c" points="626.5,-444 626.5,-504 1090.5,-504 1090.5,-444 626.5,-444"></polygon>
<text text-anchor="start" x="637.5" y="-464.2" font-family="Helvetica,sans-Serif" font-size="32.00" fill="#29235c">firstname &#160;&#160;</text>
<polygon fill="#ffffff" stroke="none" points="808.71,-454.6 808.71,-493 1079.5,-493 1079.5,-454.6 808.71,-454.6"></polygon>
<text text-anchor="start" x="821.66" y="-465.2" font-family="Helvetica,sans-Serif" font-style="italic" font-size="32.00" fill="#29235c">VARCHAR(255) &#160;&#160;</text>
<polygon fill="#e7e2dd" stroke="none" points="626.5,-384 626.5,-444 1090.5,-444 1090.5,-384 626.5,-384"></polygon>
<polygon fill="none" stroke="#29235c" points="626.5,-384 626.5,-444 1090.5,-444 1090.5,-384 626.5,-384"></polygon>
<text text-anchor="start" x="637.5" y="-404.2" font-family="Helvetica,sans-Serif" font-size="32.00" fill="#29235c">lastname &#160;&#160;</text>
<polygon fill="#e7e2dd" stroke="none" points="807.84,-394.6 807.84,-433 1079.5,-433 1079.5,-394.6 807.84,-394.6"></polygon>
<text text-anchor="start" x="821.66" y="-405.2" font-family="Helvetica,sans-Serif" font-style="italic" font-size="32.00" fill="#29235c">VARCHAR(255) &#160;&#160;</text>
<polygon fill="#ffffff" stroke="none" points="626.5,-324 626.5,-384 1090.5,-384 1090.5,-324 626.5,-324"></polygon>
<polygon fill="none" stroke="#29235c" points="626.5,-324 626.5,-384 1090.5,-384 1090.5,-324 626.5,-324"></polygon>
<text text-anchor="start" x="637.5" y="-344.2" font-family="Helvetica,sans-Serif" font-size="32.00" fill="#29235c">enabled &#160;&#160;</text>
<polygon fill="#ffffff" stroke="none" points="838.09,-334.6 838.09,-373 1079.5,-373 1079.5,-334.6 838.09,-334.6"></polygon>
<text text-anchor="start" x="898.11" y="-345.2" font-family="Helvetica,sans-Serif" font-style="italic" font-size="32.00" fill="#29235c">BOOLEAN &#160;&#160;</text>
<polygon fill="none" stroke="#29235c" stroke-width="2" points="625.5,-323 625.5,-625 1091.5,-625 1091.5,-323 625.5,-323"></polygon>
</g>
<!-- subject_faculty_mapping -->
<g id="node6" class="node">
<title>subject_faculty_mapping</title>
<polygon fill="blue" stroke="none" points="52,-1126 52,-1186 475,-1186 475,-1126 52,-1126"></polygon>
<polygon fill="none" stroke="#29235c" points="52,-1126 52,-1186 475,-1186 475,-1126 52,-1126"></polygon>
<text text-anchor="start" x="71.45" y="-1147.2" font-family="Helvetica,sans-Serif" font-weight="bold" font-size="32.00" fill="#ffffff">subject_faculty_mapping</text>
<polygon fill="#e7e2dd" stroke="none" points="52,-1066 52,-1126 475,-1126 475,-1066 52,-1066"></polygon>
<polygon fill="none" stroke="#29235c" points="52,-1066 52,-1126 475,-1126 475,-1066 52,-1066"></polygon>
<text text-anchor="start" x="63" y="-1086.2" font-family="Helvetica,sans-Serif" font-size="32.00" fill="#29235c">id &#160;&#160;</text>
<polygon fill="#e7e2dd" stroke="none" points="202.14,-1076.6 202.14,-1115 464,-1115 464,-1076.6 202.14,-1076.6"></polygon>
<text text-anchor="start" x="289.7" y="-1087.2" font-family="Helvetica,sans-Serif" font-style="italic" font-size="32.00" fill="#29235c">SERIAL &#160;&#160;pk</text>
<polygon fill="#ffffff" stroke="none" points="52,-1006 52,-1066 475,-1066 475,-1006 52,-1006"></polygon>
<polygon fill="none" stroke="#29235c" points="52,-1006 52,-1066 475,-1066 475,-1006 52,-1006"></polygon>
<text text-anchor="start" x="63" y="-1026.2" font-family="Helvetica,sans-Serif" font-size="32.00" fill="#29235c">subject_id &#160;&#160;</text>
<polygon fill="#ffffff" stroke="none" points="264.43,-1016.6 264.43,-1055 464,-1055 464,-1016.6 264.43,-1016.6"></polygon>
<text text-anchor="start" x="295.09" y="-1027.2" font-family="Helvetica,sans-Serif" font-style="italic" font-size="32.00" fill="#29235c">INTEGER &#160;&#160;</text>
<polygon fill="#e7e2dd" stroke="none" points="52,-946 52,-1006 475,-1006 475,-946 52,-946"></polygon>
<polygon fill="none" stroke="#29235c" points="52,-946 52,-1006 475,-1006 475,-946 52,-946"></polygon>
<text text-anchor="start" x="63" y="-966.2" font-family="Helvetica,sans-Serif" font-size="32.00" fill="#29235c">faculty_id &#160;&#160;</text>
<polygon fill="#e7e2dd" stroke="none" points="224.86,-956.6 224.86,-995 464.91,-995 464.91,-956.6 224.86,-956.6"></polygon>
<text text-anchor="start" x="224.86" y="-967.2" font-family="Helvetica,sans-Serif" font-style="italic" font-size="32.00" fill="#29235c">VARCHAR(50) &#160;&#160;</text>
<polygon fill="#ffffff" stroke="none" points="52,-886 52,-946 475,-946 475,-886 52,-886"></polygon>
<polygon fill="none" stroke="#29235c" points="52,-886 52,-946 475,-946 475,-886 52,-886"></polygon>
<text text-anchor="start" x="63" y="-906.2" font-family="Helvetica,sans-Serif" font-size="32.00" fill="#29235c">role &#160;&#160;</text>
<polygon fill="#ffffff" stroke="none" points="260.83,-896.6 260.83,-935 464,-935 464,-896.6 260.83,-896.6"></polygon>
<text text-anchor="start" x="378.62" y="-907.2" font-family="Helvetica,sans-Serif" font-style="italic" font-size="32.00" fill="#29235c">json &#160;&#160;</text>
<polygon fill="#e7e2dd" stroke="none" points="52,-826 52,-886 475,-886 475,-826 52,-826"></polygon>
<polygon fill="none" stroke="#29235c" points="52,-826 52,-886 475,-886 475,-826 52,-826"></polygon>
<text text-anchor="start" x="63" y="-846.2" font-family="Helvetica,sans-Serif" font-size="32.00" fill="#29235c">enabled &#160;&#160;</text>
<polygon fill="#e7e2dd" stroke="none" points="243.09,-836.6 243.09,-875 464,-875 464,-836.6 243.09,-836.6"></polygon>
<text text-anchor="start" x="282.61" y="-847.2" font-family="Helvetica,sans-Serif" font-style="italic" font-size="32.00" fill="#29235c">BOOLEAN &#160;&#160;</text>
<polygon fill="none" stroke="#29235c" stroke-width="2" points="51,-825 51,-1187 476,-1187 476,-825 51,-825"></polygon>
</g>
<!-- subject_faculty_mapping&#45;&gt;subject_master -->
<!-- subject_faculty_mapping&#45;&gt;subject_master -->
<g id="edge8" class="edge">
<title>subject_faculty_mapping:e-&gt;subject_master:w</title>
<path fill="none" stroke="#94a3b8" d="M476.5,-1036C551.49,-1036 511.71,-1123.58 527,-1197 534.07,-1230.95 526.94,-1485.58 554.33,-1531.06"></path>
<polygon fill="#94a3b8" stroke="#94a3b8" points="552.21,-1533.84 562.29,-1537.09 556.43,-1528.26 552.21,-1533.84"></polygon>
</g>
<!-- subject_faculty_mapping&#45;&gt;users -->
<!-- subject_faculty_mapping&#45;&gt;users -->
<g id="edge10" class="edge">
<title>subject_faculty_mapping:e-&gt;users:w</title>
<path fill="none" stroke="#94a3b8" d="M476.5,-976C679.86,-976 428.14,-550.67 614.16,-534.47"></path>
<polygon fill="#94a3b8" stroke="#94a3b8" points="614.14,-537.98 623.99,-534.06 613.85,-530.98 614.14,-537.98"></polygon>
</g>
<!-- subject_org -->
<g id="node7" class="node">
<title>subject_org</title>
<polygon fill="blue" stroke="none" points="79.5,-744 79.5,-804 447.5,-804 447.5,-744 79.5,-744"></polygon>
<polygon fill="none" stroke="#29235c" points="79.5,-744 79.5,-804 447.5,-804 447.5,-744 79.5,-744"></polygon>
<text text-anchor="start" x="172.81" y="-765.2" font-family="Helvetica,sans-Serif" font-weight="bold" font-size="32.00" fill="#ffffff">subject_org</text>
<polygon fill="#e7e2dd" stroke="none" points="79.5,-684 79.5,-744 447.5,-744 447.5,-684 79.5,-684"></polygon>
<polygon fill="none" stroke="#29235c" points="79.5,-684 79.5,-744 447.5,-744 447.5,-684 79.5,-684"></polygon>
<text text-anchor="start" x="90.5" y="-704.2" font-family="Helvetica,sans-Serif" font-size="32.00" fill="#29235c">id &#160;&#160;</text>
<polygon fill="#e7e2dd" stroke="none" points="202.14,-694.6 202.14,-733 436.5,-733 436.5,-694.6 202.14,-694.6"></polygon>
<text text-anchor="start" x="262.2" y="-705.2" font-family="Helvetica,sans-Serif" font-style="italic" font-size="32.00" fill="#29235c">SERIAL &#160;&#160;pk</text>
<polygon fill="#ffffff" stroke="none" points="79.5,-624 79.5,-684 447.5,-684 447.5,-624 79.5,-624"></polygon>
<polygon fill="none" stroke="#29235c" points="79.5,-624 79.5,-684 447.5,-684 447.5,-624 79.5,-624"></polygon>
<text text-anchor="start" x="90.5" y="-644.2" font-family="Helvetica,sans-Serif" font-size="32.00" fill="#29235c">subject_lid &#160;&#160;</text>
<polygon fill="#ffffff" stroke="none" points="268.38,-634.6 268.38,-673 437.28,-673 437.28,-634.6 268.38,-634.6"></polygon>
<text text-anchor="start" x="268.38" y="-645.2" font-family="Helvetica,sans-Serif" font-style="italic" font-size="32.00" fill="#29235c">INTEGER &#160;&#160;</text>
<polygon fill="#e7e2dd" stroke="none" points="79.5,-564 79.5,-624 447.5,-624 447.5,-564 79.5,-564"></polygon>
<polygon fill="none" stroke="#29235c" points="79.5,-564 79.5,-624 447.5,-624 447.5,-564 79.5,-564"></polygon>
<text text-anchor="start" x="90.5" y="-584.2" font-family="Helvetica,sans-Serif" font-size="32.00" fill="#29235c">org_lid &#160;&#160;</text>
<polygon fill="#e7e2dd" stroke="none" points="240.41,-574.6 240.41,-613 436.5,-613 436.5,-574.6 240.41,-574.6"></polygon>
<text text-anchor="start" x="267.59" y="-585.2" font-family="Helvetica,sans-Serif" font-style="italic" font-size="32.00" fill="#29235c">INTEGER &#160;&#160;</text>
<polygon fill="#ffffff" stroke="none" points="79.5,-504 79.5,-564 447.5,-564 447.5,-504 79.5,-504"></polygon>
<polygon fill="none" stroke="#29235c" points="79.5,-504 79.5,-564 447.5,-564 447.5,-504 79.5,-504"></polygon>
<text text-anchor="start" x="90.5" y="-524.2" font-family="Helvetica,sans-Serif" font-size="32.00" fill="#29235c">enabled &#160;&#160;</text>
<polygon fill="#ffffff" stroke="none" points="243.09,-514.6 243.09,-553 436.5,-553 436.5,-514.6 243.09,-514.6"></polygon>
<text text-anchor="start" x="255.11" y="-525.2" font-family="Helvetica,sans-Serif" font-style="italic" font-size="32.00" fill="#29235c">BOOLEAN &#160;&#160;</text>
<polygon fill="none" stroke="#29235c" stroke-width="2" points="78.5,-503 78.5,-805 448.5,-805 448.5,-503 78.5,-503"></polygon>
</g>
<!-- subject_org&#45;&gt;subject_master -->
<!-- subject_org&#45;&gt;subject_master -->
<g id="edge12" class="edge">
<title>subject_org:e-&gt;subject_master:w</title>
<path fill="none" stroke="#94a3b8" d="M448.5,-654C528.11,-654 507.15,-737.91 527,-815 536.36,-851.36 525,-1449.99 556.18,-1529.34"></path>
<polygon fill="#94a3b8" stroke="#94a3b8" points="553.39,-1531.47 562.52,-1536.84 558.74,-1526.95 553.39,-1531.47"></polygon>
</g>
<!-- organization_master -->
<g id="node8" class="node">
<title>organization_master</title>
<polygon fill="blue" stroke="none" points="633.5,-242 633.5,-302 1083.5,-302 1083.5,-242 633.5,-242"></polygon>
<polygon fill="none" stroke="#29235c" points="633.5,-242 633.5,-302 1083.5,-302 1083.5,-242 633.5,-242"></polygon>
<text text-anchor="start" x="702.02" y="-263.2" font-family="Helvetica,sans-Serif" font-weight="bold" font-size="32.00" fill="#ffffff">organization_master</text>
<polygon fill="#e7e2dd" stroke="none" points="633.5,-182 633.5,-242 1083.5,-242 1083.5,-182 633.5,-182"></polygon>
<polygon fill="none" stroke="#29235c" points="633.5,-182 633.5,-242 1083.5,-242 1083.5,-182 633.5,-182"></polygon>
<text text-anchor="start" x="644.5" y="-202.2" font-family="Helvetica,sans-Serif" font-size="32.00" fill="#29235c">id &#160;&#160;</text>
<polygon fill="#e7e2dd" stroke="none" points="797.14,-192.6 797.14,-231 1072.5,-231 1072.5,-192.6 797.14,-192.6"></polygon>
<text text-anchor="start" x="898.2" y="-203.2" font-family="Helvetica,sans-Serif" font-style="italic" font-size="32.00" fill="#29235c">SERIAL &#160;&#160;pk</text>
<polygon fill="#ffffff" stroke="none" points="633.5,-122 633.5,-182 1083.5,-182 1083.5,-122 633.5,-122"></polygon>
<polygon fill="none" stroke="#29235c" points="633.5,-122 633.5,-182 1083.5,-182 1083.5,-122 633.5,-122"></polygon>
<text text-anchor="start" x="644.5" y="-142.2" font-family="Helvetica,sans-Serif" font-size="32.00" fill="#29235c">org_id &#160;&#160;</text>
<polygon fill="#ffffff" stroke="none" points="831.86,-132.6 831.86,-171 1072.5,-171 1072.5,-132.6 831.86,-132.6"></polygon>
<text text-anchor="start" x="903.59" y="-143.2" font-family="Helvetica,sans-Serif" font-style="italic" font-size="32.00" fill="#29235c">INTEGER &#160;&#160;</text>
<polygon fill="#e7e2dd" stroke="none" points="633.5,-62 633.5,-122 1083.5,-122 1083.5,-62 633.5,-62"></polygon>
<polygon fill="none" stroke="#29235c" points="633.5,-62 633.5,-122 1083.5,-122 1083.5,-62 633.5,-62"></polygon>
<text text-anchor="start" x="644.5" y="-82.2" font-family="Helvetica,sans-Serif" font-size="32.00" fill="#29235c">org_name &#160;&#160;</text>
<polygon fill="#e7e2dd" stroke="none" points="815.27,-72.6 815.27,-111 1073.11,-111 1073.11,-72.6 815.27,-72.6"></polygon>
<text text-anchor="start" x="815.27" y="-83.2" font-family="Helvetica,sans-Serif" font-style="italic" font-size="32.00" fill="#29235c">VARCHAR(255) &#160;&#160;</text>
<polygon fill="#ffffff" stroke="none" points="633.5,-2 633.5,-62 1083.5,-62 1083.5,-2 633.5,-2"></polygon>
<polygon fill="none" stroke="#29235c" points="633.5,-2 633.5,-62 1083.5,-62 1083.5,-2 633.5,-2"></polygon>
<text text-anchor="start" x="644.5" y="-22.2" font-family="Helvetica,sans-Serif" font-size="32.00" fill="#29235c">enabled &#160;&#160;</text>
<polygon fill="#ffffff" stroke="none" points="838.09,-12.6 838.09,-51 1072.5,-51 1072.5,-12.6 838.09,-12.6"></polygon>
<text text-anchor="start" x="891.11" y="-23.2" font-family="Helvetica,sans-Serif" font-style="italic" font-size="32.00" fill="#29235c">BOOLEAN &#160;&#160;</text>
<polygon fill="none" stroke="#29235c" stroke-width="2" points="632.5,-1 632.5,-303 1084.5,-303 1084.5,-1 632.5,-1"></polygon>
</g>
<!-- subject_org&#45;&gt;organization_master -->
<!-- subject_org&#45;&gt;organization_master -->
<g id="edge14" class="edge">
<title>subject_org:e-&gt;organization_master:w</title>
<path fill="none" stroke="#94a3b8" d="M448.5,-594C657.34,-594 428.52,-168.25 621.12,-152.45"></path>
<polygon fill="#94a3b8" stroke="#94a3b8" points="621.13,-155.95 630.99,-152.06 620.86,-148.96 621.13,-155.95"></polygon>
</g>
<!-- user_school_campus -->
<g id="node9" class="node">
<title>user_school_campus</title>
<polygon fill="blue" stroke="none" points="48,-422 48,-482 479,-482 479,-422 48,-422"></polygon>
<polygon fill="none" stroke="#29235c" points="48,-422 48,-482 479,-482 479,-422 48,-422"></polygon>
<text text-anchor="start" x="99.88" y="-443.2" font-family="Helvetica,sans-Serif" font-weight="bold" font-size="32.00" fill="#ffffff">user_school_campus</text>
<polygon fill="#e7e2dd" stroke="none" points="48,-362 48,-422 479,-422 479,-362 48,-362"></polygon>
<polygon fill="none" stroke="#29235c" points="48,-362 48,-422 479,-422 479,-362 48,-362"></polygon>
<text text-anchor="start" x="59" y="-382.2" font-family="Helvetica,sans-Serif" font-size="32.00" fill="#29235c">username &#160;&#160;</text>
<polygon fill="#e7e2dd" stroke="none" points="227.97,-372.6 227.97,-411 468.02,-411 468.02,-372.6 227.97,-372.6"></polygon>
<text text-anchor="start" x="227.97" y="-383.2" font-family="Helvetica,sans-Serif" font-style="italic" font-size="32.00" fill="#29235c">VARCHAR(50) &#160;&#160;</text>
<polygon fill="#ffffff" stroke="none" points="48,-302 48,-362 479,-362 479,-302 48,-302"></polygon>
<polygon fill="none" stroke="#29235c" points="48,-302 48,-362 479,-362 479,-302 48,-302"></polygon>
<text text-anchor="start" x="59" y="-322.2" font-family="Helvetica,sans-Serif" font-size="32.00" fill="#29235c">campus_id &#160;&#160;</text>
<polygon fill="#ffffff" stroke="none" points="269.76,-312.6 269.76,-351 468,-351 468,-312.6 269.76,-312.6"></polygon>
<text text-anchor="start" x="299.09" y="-323.2" font-family="Helvetica,sans-Serif" font-style="italic" font-size="32.00" fill="#29235c">INTEGER &#160;&#160;</text>
<polygon fill="#e7e2dd" stroke="none" points="48,-242 48,-302 479,-302 479,-242 48,-242"></polygon>
<polygon fill="none" stroke="#29235c" points="48,-242 48,-302 479,-302 479,-242 48,-242"></polygon>
<text text-anchor="start" x="59" y="-262.2" font-family="Helvetica,sans-Serif" font-size="32.00" fill="#29235c">school_id &#160;&#160;</text>
<polygon fill="#e7e2dd" stroke="none" points="259.98,-252.6 259.98,-291 468,-291 468,-252.6 259.98,-252.6"></polygon>
<text text-anchor="start" x="299.09" y="-263.2" font-family="Helvetica,sans-Serif" font-style="italic" font-size="32.00" fill="#29235c">INTEGER &#160;&#160;</text>
<polygon fill="#ffffff" stroke="none" points="48,-182 48,-242 479,-242 479,-182 48,-182"></polygon>
<polygon fill="none" stroke="#29235c" points="48,-182 48,-242 479,-242 479,-182 48,-182"></polygon>
<text text-anchor="start" x="59" y="-202.2" font-family="Helvetica,sans-Serif" font-size="32.00" fill="#29235c">enabled &#160;&#160;</text>
<polygon fill="#ffffff" stroke="none" points="243.09,-192.6 243.09,-231 468,-231 468,-192.6 243.09,-192.6"></polygon>
<text text-anchor="start" x="286.61" y="-203.2" font-family="Helvetica,sans-Serif" font-style="italic" font-size="32.00" fill="#29235c">BOOLEAN &#160;&#160;</text>
<polygon fill="none" stroke="#29235c" stroke-width="2" points="47,-181 47,-483 480,-483 480,-181 47,-181"></polygon>
</g>
<!-- user_school_campus&#45;&gt;campus_master -->
<!-- user_school_campus&#45;&gt;campus_master -->
<g id="edge18" class="edge">
<title>user_school_campus:e-&gt;campus_master:w</title>
<path fill="none" stroke="#94a3b8" d="M480.5,-332C582.89,-332 499.91,-761.33 588.19,-794.03"></path>
<polygon fill="#94a3b8" stroke="#94a3b8" points="587.56,-797.47 598.01,-795.74 588.76,-790.58 587.56,-797.47"></polygon>
</g>
<!-- user_school_campus&#45;&gt;users -->
<!-- user_school_campus&#45;&gt;users -->
<g id="edge16" class="edge">
<title>user_school_campus:e-&gt;users:w</title>
<path fill="none" stroke="#94a3b8" d="M480.5,-392C566.65,-392 538.23,-521.53 614.08,-533.17"></path>
<polygon fill="#94a3b8" stroke="#94a3b8" points="613.76,-536.65 623.99,-533.89 614.27,-529.67 613.76,-536.65"></polygon>
</g>
<!-- user_school_campus&#45;&gt;organization_master -->
<!-- user_school_campus&#45;&gt;organization_master -->
<g id="edge20" class="edge">
<title>user_school_campus:e-&gt;organization_master:w</title>
<path fill="none" stroke="#94a3b8" d="M480.5,-272C562.54,-272 548.08,-162.99 621.07,-152.77"></path>
<polygon fill="#94a3b8" stroke="#94a3b8" points="621.25,-156.26 630.99,-152.1 620.78,-149.28 621.25,-156.26"></polygon>
</g>
</g>
</g></svg>